<svg xmlns="http://www.w3.org/2000/svg" viewBox="0 0 128 128" width="128" height="128"
     data-part-id="eq_deflector" data-type="equipment" data-direction="west">
  <title>Deflektor-Schild (west)</title>
  <!--
    Isometrische Ansicht, Kamera 45 Grad von oben, Blickrichtung west.
    Bodenfeld: Raute 76 x 54 px um den Mittelpunkt (64, 96).
    Projektion:  x = 64 + cos(45)*(px - py)*SCALE
                 y = 96 - (0.5*(px + py) + cos(45)*pz)*SCALE
    Erzeugt von tools/build_sample_parts.py aus einer bot-lokalen Quader-
    Definition, nicht von Hand bearbeiten, sondern dort aendern.
    Farben ausschliesslich ueber CSS Custom Properties (siehe parts/README.md).
  -->
<g stroke="var(--c-outline)" stroke-width="0.9" stroke-linejoin="round">
  <path d="M60.56 55.07 L64.0 57.5 L64.0 31.72 L60.56 29.29 Z" fill="var(--c-plate-light)"/>
  <path d="M64.0 57.5 L64.95 56.82 L64.95 31.05 L64.0 31.72 Z" fill="var(--c-plate)"/>
  <path d="M52.74 53.38 L55.03 51.76 L55.03 39.35 L52.74 40.97 Z" fill="var(--c-accent)" stroke="none"/>
  <path d="M49.68 59.21 L59.23 52.46 L59.23 34.33 L49.68 41.08 Z" fill="var(--c-plate-dark)"/>
  <path d="M52.26 53.04 L52.74 53.38 L52.74 40.97 L52.26 40.63 Z" fill="var(--c-accent)" stroke="none"/>
  <path d="M50.64 66.41 L64.0 56.96 L64.0 31.18 L50.64 40.63 Z" fill="var(--c-plate-dark)"/>
  <path d="M49.11 58.81 L49.68 59.21 L49.68 41.08 L49.11 40.67 Z" fill="var(--c-plate-dark)"/>
  <path d="M55.03 39.35 L54.55 39.01 L52.26 40.63 L52.74 40.97 Z" fill="var(--c-accent)" stroke="none"/>
  <path d="M64.95 31.05 L61.52 28.62 L60.56 29.29 L64.0 31.72 Z" fill="var(--c-plate-light)"/>
  <path d="M47.77 64.38 L50.64 66.41 L50.64 40.63 L47.77 38.61 Z" fill="var(--c-plate)"/>
  <path d="M59.23 34.33 L58.65 33.92 L49.11 40.67 L49.68 41.08 Z" fill="var(--c-plate)"/>
  <path d="M47.01 64.65 L50.44 67.08 L50.44 41.31 L47.01 38.88 Z" fill="var(--c-plate-light)"/>
  <path d="M50.44 67.08 L51.4 66.41 L51.4 40.63 L50.44 41.31 Z" fill="var(--c-plate)"/>
  <path d="M64.0 31.18 L61.14 29.16 L47.77 38.61 L50.64 40.63 Z" fill="var(--c-plate-light)"/>
  <path d="M63.05 57.77 L70.68 52.37 L70.68 43.78 L63.05 49.18 Z" fill="var(--c-plate-dark)"/>
  <path d="M57.32 53.72 L63.05 57.77 L63.05 49.18 L57.32 45.13 Z" fill="var(--c-metal)"/>
  <path d="M70.68 43.78 L64.95 39.73 L57.32 45.13 L63.05 49.18 Z" fill="var(--c-metal)"/>
  <path d="M51.4 40.63 L47.96 38.2 L47.01 38.88 L50.44 41.31 Z" fill="var(--c-plate-light)"/>
</g>
</svg>
