<svg xmlns="http://www.w3.org/2000/svg" viewBox="0 0 128 128" width="128" height="128"
     data-part-id="strix_core" data-type="core" data-direction="east">
  <title>Strix Zielrechner (east)</title>
  <!--
    Isometrische Ansicht, Kamera 45 Grad von oben, Blickrichtung east.
    Bodenfeld: Raute 76 x 54 px um den Mittelpunkt (64, 96).
    Projektion:  x = 64 + cos(45)*(px - py)*SCALE
                 y = 96 - (0.5*(px + py) + cos(45)*pz)*SCALE
    Erzeugt von tools/build_sample_parts.py aus einer bot-lokalen Quader-
    Definition -- nicht von Hand bearbeiten, sondern dort aendern.
    Farben ausschliesslich ueber CSS Custom Properties (siehe parts/README.md).
  -->
<g stroke="var(--c-outline)" stroke-width="0.9" stroke-linejoin="round">
  <path d="M72.97 55.32 L74.31 54.37 L74.31 53.61 L72.97 54.56 Z" fill="var(--c-accent)" stroke="none"/>
  <path d="M72.59 54.29 L72.97 54.56 L74.31 53.61 L73.93 53.34 Z" fill="var(--c-accent)" stroke="none"/>
  <path d="M72.59 55.05 L72.97 55.32 L72.97 54.56 L72.59 54.29 Z" fill="var(--c-accent)" stroke="none"/>
  <path d="M67.82 60.81 L74.31 56.22 L74.31 45.72 L67.82 50.31 Z" fill="var(--c-plate-dark)"/>
  <path d="M68.58 58.42 L69.92 57.48 L69.92 56.72 L68.58 57.66 Z" fill="var(--c-accent)" stroke="none"/>
  <path d="M68.2 57.39 L68.58 57.66 L69.92 56.72 L69.54 56.45 Z" fill="var(--c-accent)" stroke="none"/>
  <path d="M70.49 58.16 L72.59 56.68 L72.59 49.04 L70.49 50.53 Z" fill="var(--c-glow)" stroke="none"/>
  <path d="M68.2 58.15 L68.58 58.42 L68.58 57.66 L68.2 57.39 Z" fill="var(--c-accent)" stroke="none"/>
  <path d="M72.97 50.36 L74.31 49.41 L74.31 48.65 L72.97 49.59 Z" fill="var(--c-accent)" stroke="none"/>
  <path d="M72.59 49.32 L72.97 49.59 L74.31 48.65 L73.93 48.38 Z" fill="var(--c-accent)" stroke="none"/>
  <path d="M72.59 50.09 L72.97 50.36 L72.97 49.59 L72.59 49.32 Z" fill="var(--c-accent)" stroke="none"/>
  <path d="M70.01 57.83 L70.49 58.16 L70.49 50.53 L70.01 50.19 Z" fill="var(--c-glow)" stroke="none"/>
  <path d="M67.05 60.27 L67.82 60.81 L67.82 50.31 L67.05 49.77 Z" fill="var(--c-plate-dark)"/>
  <path d="M70.01 50.19 L70.49 50.53 L72.59 49.04 L72.11 48.7 Z" fill="var(--c-glow)" stroke="none"/>
  <path d="M67.05 49.77 L67.82 50.31 L74.31 45.72 L73.55 45.18 Z" fill="var(--c-plate)"/>
  <path d="M68.58 53.46 L69.92 52.52 L69.92 51.75 L68.58 52.7 Z" fill="var(--c-accent)" stroke="none"/>
  <path d="M68.2 52.43 L68.58 52.7 L69.92 51.75 L69.54 51.48 Z" fill="var(--c-accent)" stroke="none"/>
  <path d="M68.2 53.19 L68.58 53.46 L68.58 52.7 L68.2 52.43 Z" fill="var(--c-accent)" stroke="none"/>
</g>
</svg>
